<?xml version="1.0" encoding="utf-8"?>
<!-- Generator: Adobe Illustrator 27.5.0, SVG Export Plug-In . SVG Version: 6.00 Build 0)  -->
<svg version="1.1" id="Layer_1" xmlns="http://www.w3.org/2000/svg" xmlns:xlink="http://www.w3.org/1999/xlink" x="0px" y="0px"
	 viewBox="0 0 326.912 178.667" style="enable-background:new 0 0 326.912 178.667;" xml:space="preserve">
<g>
	<g>
		<path style="fill:#D6D6D6;" d="M297.251,41.434c-0.943-1.093-2.131-1.919-3.431-2.535c-1.257-0.598-2.619-0.998-3.962-1.253
			c-6.186-1.175-11.87,0.841-17.196,3.842c-1.46,0.823-2.901,1.675-4.352,2.512c-1.347,0.775-2.569,1.806-4.017,2.398
			c-1.5,0.615-3.233,0.782-4.838,0.871c-3.54,0.198-7.117-0.524-10.534-1.378c-1.901-0.476-3.794-0.991-5.704-1.432
			c-6.549-1.512-15.092-2.556-20.907,1.732c-1.222,0.902-2.604,2.445-3.073,3.927c-1.135,3.583,1.573,5.886,3.429,8.503
			c1.885,2.658,2.011,4.856-1.218,6.508c-4.267,2.183-10.891,4.222-11.757,9.803c-0.244,1.575,0.388,3.941,1.456,5.154
			c2.077,2.36,5.162,3.472,8.109,4.345c1.502,0.445,2.904,1.068,4.369,1.603c2.217,0.811,3.444,3.403,3.075,5.699h2.638
			c0.776-0.873,1.585-1.774,1.496-2.985c-0.23-3.12-4.124-4.495-4.333-7.604c-0.205-3.054,3.557-3.842,5.825-4.131
			c2.102-0.267,5.104-0.492,5.646-3.033c0.68-3.183-3.686-3.609-5.275-5.279c-1.104-1.162-0.31-2.499,0.828-3.364
			c1.082-0.824,2.394-1.279,3.713-1.555c3.335-0.696,6.761,0.599,9.884,1.638c3.31,1.102,6.654,2.178,10.184,2.091
			c2.319-0.057,4.678-0.637,6.491-2.147c2.187-1.824,2.382-4.305,3.566-6.705c2.415-4.901,9.163-4.026,13.587-3.407
			c3.491,0.487,7.048,1.103,10.566,0.518c2.879-0.478,5.365-1.996,6.957-4.458C300.602,48.018,299.738,44.314,297.251,41.434z"/>
		<g>
			<g>
				<g>
					<polygon style="fill:#C8C8C8;" points="227.219,89.685 231.475,89.685 235.925,171.907 218.512,171.907 222.961,89.685 
						227.219,89.685 					"/>
					<polygon style="fill:#A62B1E;" points="231.736,94.499 231.475,89.685 222.961,89.685 222.7,94.499 					"/>
					<polygon style="fill:#A62B1E;" points="233.203,121.62 232.81,114.349 221.626,114.349 221.233,121.62 					"/>
					<polygon style="fill:#A62B1E;" points="233.959,135.574 233.598,128.892 220.839,128.892 220.477,135.574 					"/>
					<polygon style="fill:#A62B1E;" points="234.937,153.655 234.501,145.597 219.936,145.597 219.499,153.655 					"/>
					<polygon style="fill:#A62B1E;" points="219.031,162.301 218.512,171.907 235.925,171.907 235.405,162.301 					"/>
					<polygon style="fill:#A62B1E;" points="232.439,107.47 232.108,101.378 222.328,101.378 221.998,107.47 					"/>
					<polygon style="fill:#BDB1B3;" points="227.208,171.907 235.925,171.907 231.475,89.685 227.208,89.685 					"/>
				</g>
			</g>
			<rect x="210.649" y="169.966" style="fill:#615C5C;" width="33.137" height="4.816"/>
			<rect x="227.219" y="169.966" style="opacity:0.6;fill:#615C5C;" width="16.567" height="4.816"/>
			<polygon style="opacity:0.5;fill:#BDB1B3;" points="223.621,90.524 219.347,168.819 221.484,168.819 224.841,90.524 			"/>
		</g>
	</g>
	<g>
		<g>
			<g>
				<polygon style="fill:#C8C8C8;" points="192.104,108.688 194.222,108.688 196.436,172.549 187.773,172.549 189.986,108.688 
					192.104,108.688 				"/>
				<polygon style="fill:#A62B1E;" points="194.352,112.428 194.222,108.688 189.986,108.688 189.856,112.428 				"/>
				<polygon style="fill:#A62B1E;" points="195.081,133.492 194.886,127.845 189.322,127.845 189.126,133.492 				"/>
				<polygon style="fill:#A62B1E;" points="195.457,144.33 195.277,139.14 188.93,139.14 188.75,144.33 				"/>
				<polygon style="fill:#A62B1E;" points="195.944,158.373 195.727,152.114 188.48,152.114 188.264,158.373 				"/>
				<polygon style="fill:#A62B1E;" points="188.031,165.088 187.773,172.549 196.436,172.549 196.177,165.088 				"/>
				<polygon style="fill:#A62B1E;" points="194.7,122.502 194.537,117.77 189.671,117.77 189.507,122.502 				"/>
				<polygon style="fill:#BDB1B3;" points="192.169,172.549 196.436,172.549 194.222,108.688 192.169,108.688 				"/>
			</g>
		</g>
		<rect x="183.861" y="167.301" style="fill:#615C5C;" width="16.485" height="7.48"/>
		<rect x="183.861" y="171.041" style="opacity:0.6;fill:#615C5C;" width="16.485" height="3.741"/>
		<polygon style="opacity:0.5;fill:#BDB1B3;" points="188.75,166.57 190.681,166.57 190.681,109.031 		"/>
	</g>
	<g>
		<g>
			<path style="fill:#ECECEC;" d="M114.358,18.164c-4.296-2.86-9.889-3.427-14.731-1.712c-1.36,0.482-2.604,1.094-3.767,1.835
				c-3.315-5.198-9.571-6.894-15.473-6.287c-6.695,0.689-12.733,4.566-16.716,9.89c-0.74,0.988-1.345,2.042-1.808,3.146
				c-2.671-0.318-5.531,0.293-8.001,1.915c-1.988,1.306-3.744,3.163-4.791,5.324c-3.958-0.492-7.919,0.365-11.239,2.681
				c-3.537,2.468-5.747,6.254-5.997,10.551c-0.063,1.081,0.055,2.151,0.287,3.198c-4.315,2.056-7.035,7.1-6.389,11.87
				c0.444,3.282,2.745,5.917,5.599,7.414c1.329,0.698,2.729,1.001,4.137,1.022c-0.148,0.803-0.242,1.619-0.262,2.447
				c-0.12,4.869,3.503,10.489,8.497,11.477c4.667,0.924,9.163-0.791,11.779-4.807c1.787-2.744,2.561-5.941,2.465-9.142
				c0.648,0.515,1.383,0.94,2.207,1.247c2.999,1.119,6.546,0.281,9.384-0.894c1.581-0.654,2.825-1.652,3.823-2.878
				c1.199,2.286,3.503,3.848,6.089,4.378c4.223,0.866,7.847-2.32,10.106-5.499c0.864-1.216,1.631-2.706,2.03-4.244
				c1.322,0.731,2.784,1.207,4.282,1.496c4.988,0.964,10.147-1.184,13.832-4.478c3.676-3.286,5.873-7.404,6.471-12.291
				c0.287-2.34,0.138-4.843-0.574-7.13c1.973-2.159,3.402-4.85,4.226-7.668C121.328,25.886,118.585,20.976,114.358,18.164z"/>
			<path style="fill:#ECECEC;" d="M137.389,43.719c0,3.867-3.135,7.002-7.001,7.002c-3.867,0-7.002-3.135-7.002-7.002
				c0-3.867,3.135-7.001,7.002-7.001C134.254,36.718,137.389,39.853,137.389,43.719z"/>
			<path style="fill:#ECECEC;" d="M102.379,8.933c0,2.093-1.696,3.789-3.788,3.789c-2.093,0-3.789-1.696-3.789-3.789
				c0-2.092,1.696-3.789,3.789-3.789C100.684,5.144,102.379,6.841,102.379,8.933z"/>
			<path style="fill:#ECECEC;" d="M131.567,30.037c0,2.259-1.832,4.091-4.091,4.091c-2.259,0-4.091-1.832-4.091-4.091
				s1.832-4.091,4.091-4.091C129.735,25.946,131.567,27.778,131.567,30.037z"/>
		</g>
		<g>
			<g>
				<path style="fill:#979696;" d="M66.199,114.248c-2.893-12.51-3.468-24.886-3.468-37.685H30.673
					c0,12.799-0.576,25.174-3.469,37.685c-0.818,3.537-16.276,58.975-16.269,59.017h33.572h4.387h33.573
					C82.475,173.222,67.017,117.785,66.199,114.248z"/>
				<path style="opacity:0.4;fill:#979696;" d="M66.199,114.248c-2.893-12.51-3.468-24.886-3.468-37.685H46.158v96.701h36.31
					C82.475,173.222,67.017,117.785,66.199,114.248z"/>
				<path style="fill:#979696;" d="M62.737,78.603c-0.003-0.679-0.006-1.358-0.006-2.039H30.673c0,0.682-0.003,1.361-0.007,2.039
					H62.737z"/>
				<path style="fill:#5D5E5D;" d="M13.418,164.311c-1.493,5.375-2.485,8.942-2.483,8.953h71.532
					c0.001-0.011-0.989-3.578-2.483-8.953H13.418z"/>
				<g>
					<path style="fill:#272726;" d="M16.287,172.996h-4.643c-0.084,0-0.164-0.04-0.213-0.108c-0.05-0.067-0.064-0.156-0.04-0.236
						l2.322-7.39c0.034-0.11,0.136-0.185,0.252-0.185c0.115,0,0.218,0.075,0.252,0.185l2.322,7.39
						c0.025,0.08,0.011,0.168-0.04,0.236C16.45,172.956,16.371,172.996,16.287,172.996z M12.004,172.466h3.922l-1.961-6.243
						L12.004,172.466z"/>
					<path style="fill:#272726;" d="M28.19,172.996h-4.643c-0.084,0-0.163-0.04-0.212-0.108c-0.05-0.067-0.065-0.156-0.039-0.236
						l2.321-7.39c0.035-0.11,0.137-0.185,0.252-0.185c0.115,0,0.218,0.075,0.252,0.185l2.322,7.39
						c0.025,0.08,0.01,0.168-0.039,0.236C28.354,172.956,28.275,172.996,28.19,172.996z M23.908,172.466h3.923l-1.962-6.243
						L23.908,172.466z"/>
					<path style="fill:#272726;" d="M22.238,172.996h-4.643c-0.085,0-0.164-0.04-0.214-0.108c-0.049-0.067-0.063-0.156-0.039-0.236
						l2.321-7.39c0.035-0.11,0.137-0.185,0.253-0.185c0.115,0,0.218,0.075,0.252,0.185l2.322,7.39
						c0.025,0.08,0.01,0.168-0.039,0.236C22.402,172.956,22.323,172.996,22.238,172.996z M17.956,172.466h3.922l-1.961-6.243
						L17.956,172.466z"/>
					<path style="fill:#272726;" d="M16.941,172.996c-0.116,0-0.218-0.075-0.253-0.185l-2.321-7.391
						c-0.025-0.08-0.011-0.167,0.039-0.235c0.05-0.068,0.129-0.108,0.213-0.108h4.644c0.084,0,0.164,0.04,0.213,0.108
						c0.049,0.067,0.064,0.155,0.039,0.235l-2.322,7.391C17.159,172.92,17.057,172.996,16.941,172.996z M14.979,165.606l1.962,6.243
						l1.961-6.243H14.979z"/>
					<path style="fill:#272726;" d="M22.893,172.996c-0.115,0-0.218-0.075-0.253-0.185l-2.321-7.391
						c-0.025-0.08-0.011-0.167,0.04-0.235c0.049-0.068,0.128-0.108,0.212-0.108h4.643c0.084,0,0.163,0.04,0.213,0.108
						c0.05,0.067,0.065,0.155,0.039,0.235l-2.321,7.391C23.111,172.92,23.009,172.996,22.893,172.996z M20.932,165.606l1.961,6.243
						l1.961-6.243H20.932z"/>
					<path style="fill:#272726;" d="M28.845,172.996c-0.115,0-0.218-0.075-0.252-0.185l-2.321-7.391
						c-0.025-0.08-0.011-0.167,0.039-0.235c0.05-0.068,0.129-0.108,0.213-0.108h4.644c0.084,0,0.164,0.04,0.213,0.108
						c0.05,0.067,0.064,0.155,0.039,0.235l-2.321,7.391C29.063,172.92,28.96,172.996,28.845,172.996z M26.884,165.606l1.961,6.243
						l1.962-6.243H26.884z"/>
					<path style="fill:#272726;" d="M34.143,172.996H29.5c-0.084,0-0.164-0.04-0.213-0.108c-0.05-0.067-0.064-0.156-0.039-0.236
						l2.321-7.39c0.035-0.11,0.137-0.185,0.253-0.185c0.116,0,0.218,0.075,0.252,0.185l2.322,7.39
						c0.025,0.08,0.011,0.168-0.039,0.236C34.307,172.956,34.227,172.996,34.143,172.996z M29.86,172.466h3.923l-1.962-6.243
						L29.86,172.466z"/>
					<path style="fill:#272726;" d="M46.047,172.996h-4.644c-0.084,0-0.163-0.04-0.213-0.108c-0.05-0.067-0.064-0.156-0.039-0.236
						l2.321-7.39c0.035-0.11,0.138-0.185,0.253-0.185c0.115,0,0.218,0.075,0.252,0.185l2.322,7.39c0.025,0.08,0.01,0.168-0.04,0.236
						C46.21,172.956,46.131,172.996,46.047,172.996z M41.764,172.466h3.922l-1.961-6.243L41.764,172.466z"/>
					<path style="fill:#272726;" d="M40.095,172.996h-4.643c-0.084,0-0.164-0.04-0.213-0.108c-0.05-0.067-0.064-0.156-0.039-0.236
						l2.321-7.39c0.035-0.11,0.137-0.185,0.253-0.185c0.115,0,0.218,0.075,0.252,0.185l2.322,7.39
						c0.026,0.08,0.011,0.168-0.04,0.236C40.258,172.956,40.179,172.996,40.095,172.996z M35.812,172.466h3.923l-1.962-6.243
						L35.812,172.466z"/>
					<path style="fill:#272726;" d="M34.798,172.996c-0.116,0-0.218-0.075-0.253-0.185l-2.321-7.391
						c-0.025-0.08-0.012-0.167,0.039-0.235c0.049-0.068,0.128-0.108,0.213-0.108h4.643c0.084,0,0.163,0.04,0.213,0.108
						c0.05,0.067,0.064,0.155,0.04,0.235l-2.322,7.391C35.016,172.92,34.913,172.996,34.798,172.996z M32.836,165.606l1.962,6.243
						l1.961-6.243H32.836z"/>
					<path style="fill:#272726;" d="M40.749,172.996c-0.115,0-0.218-0.075-0.252-0.185l-2.322-7.391
						c-0.025-0.08-0.01-0.167,0.039-0.235c0.049-0.068,0.129-0.108,0.213-0.108h4.643c0.084,0,0.164,0.04,0.213,0.108
						c0.05,0.067,0.065,0.155,0.04,0.235l-2.321,7.391C40.967,172.92,40.865,172.996,40.749,172.996z M38.788,165.606l1.961,6.243
						l1.962-6.243H38.788z"/>
					<path style="fill:#272726;" d="M57.951,172.996h-4.643c-0.085,0-0.165-0.04-0.214-0.108c-0.05-0.067-0.065-0.156-0.039-0.236
						l2.321-7.39c0.035-0.11,0.137-0.185,0.252-0.185c0.115,0,0.217,0.075,0.252,0.185l2.322,7.39c0.025,0.08,0.01,0.168-0.04,0.236
						C58.114,172.956,58.035,172.996,57.951,172.996z M53.668,172.466h3.923l-1.961-6.243L53.668,172.466z"/>
					<path style="fill:#272726;" d="M51.999,172.996h-4.643c-0.084,0-0.163-0.04-0.213-0.108c-0.049-0.067-0.065-0.156-0.039-0.236
						l2.321-7.39c0.034-0.11,0.137-0.185,0.252-0.185c0.116,0,0.219,0.075,0.252,0.185l2.322,7.39c0.025,0.08,0.01,0.168-0.04,0.236
						C52.163,172.956,52.084,172.996,51.999,172.996z M47.716,172.466h3.923l-1.962-6.243L47.716,172.466z"/>
					<path style="fill:#272726;" d="M46.702,172.996c-0.116,0-0.218-0.075-0.253-0.185l-2.321-7.391
						c-0.025-0.08-0.01-0.167,0.04-0.235c0.049-0.068,0.129-0.108,0.213-0.108h4.643c0.085,0,0.165,0.04,0.214,0.108
						c0.05,0.067,0.064,0.155,0.039,0.235l-2.322,7.391C46.919,172.92,46.816,172.996,46.702,172.996z M44.74,165.606l1.962,6.243
						l1.961-6.243H44.74z"/>
					<path style="fill:#272726;" d="M52.653,172.996c-0.116,0-0.218-0.075-0.252-0.185l-2.322-7.391
						c-0.025-0.08-0.011-0.167,0.039-0.235c0.05-0.068,0.13-0.108,0.213-0.108h4.644c0.084,0,0.163,0.04,0.213,0.108
						c0.05,0.067,0.064,0.155,0.039,0.235l-2.321,7.391C52.871,172.92,52.769,172.996,52.653,172.996z M50.692,165.606l1.961,6.243
						l1.961-6.243H50.692z"/>
					<path style="fill:#272726;" d="M69.855,172.996h-4.643c-0.084,0-0.164-0.04-0.213-0.108c-0.05-0.067-0.064-0.156-0.039-0.236
						l2.322-7.39c0.035-0.11,0.137-0.185,0.253-0.185s0.218,0.075,0.253,0.185l2.32,7.39c0.026,0.08,0.011,0.168-0.039,0.236
						C70.018,172.956,69.939,172.996,69.855,172.996z M65.572,172.466h3.922l-1.961-6.243L65.572,172.466z"/>
					<path style="fill:#272726;" d="M63.903,172.996H59.26c-0.085,0-0.165-0.04-0.213-0.108c-0.05-0.067-0.065-0.156-0.039-0.236
						l2.321-7.39c0.034-0.11,0.137-0.185,0.252-0.185c0.116,0,0.218,0.075,0.252,0.185l2.323,7.39c0.025,0.08,0.01,0.168-0.04,0.236
						C64.066,172.956,63.987,172.996,63.903,172.996z M59.621,172.466h3.922l-1.962-6.243L59.621,172.466z"/>
					<path style="fill:#272726;" d="M58.605,172.996c-0.115,0-0.218-0.075-0.252-0.185l-2.322-7.391
						c-0.025-0.08-0.01-0.167,0.039-0.235c0.05-0.068,0.129-0.108,0.213-0.108h4.644c0.084,0,0.164,0.04,0.213,0.108
						c0.05,0.067,0.065,0.155,0.039,0.235l-2.321,7.391C58.823,172.92,58.721,172.996,58.605,172.996z M56.645,165.606l1.961,6.243
						l1.961-6.243H56.645z"/>
					<path style="fill:#272726;" d="M64.558,172.996c-0.116,0-0.218-0.075-0.253-0.185l-2.321-7.391
						c-0.025-0.08-0.011-0.167,0.04-0.235c0.049-0.068,0.129-0.108,0.212-0.108h4.644c0.085,0,0.164,0.04,0.213,0.108
						c0.049,0.067,0.064,0.155,0.039,0.235l-2.322,7.391C64.775,172.92,64.672,172.996,64.558,172.996z M62.596,165.606l1.961,6.243
						l1.961-6.243H62.596z"/>
					<path style="fill:#272726;" d="M81.759,172.996h-4.643c-0.085,0-0.164-0.04-0.213-0.108c-0.05-0.067-0.065-0.156-0.04-0.236
						l2.322-7.39c0.035-0.11,0.137-0.185,0.253-0.185s0.218,0.075,0.252,0.185l2.322,7.39c0.025,0.08,0.01,0.168-0.039,0.236
						C81.923,172.956,81.844,172.996,81.759,172.996z M77.477,172.466h3.922l-1.961-6.243L77.477,172.466z"/>
					<path style="fill:#272726;" d="M75.807,172.996h-4.643c-0.085,0-0.163-0.04-0.213-0.108c-0.05-0.067-0.065-0.156-0.04-0.236
						l2.322-7.39c0.034-0.11,0.137-0.185,0.252-0.185c0.115,0,0.218,0.075,0.252,0.185l2.322,7.39c0.026,0.08,0.01,0.168-0.04,0.236
						C75.97,172.956,75.891,172.996,75.807,172.996z M71.524,172.466h3.922l-1.962-6.243L71.524,172.466z"/>
					<path style="fill:#272726;" d="M70.509,172.996c-0.115,0-0.217-0.075-0.252-0.185l-2.322-7.391
						c-0.025-0.08-0.011-0.167,0.04-0.235c0.049-0.068,0.129-0.108,0.213-0.108h4.643c0.084,0,0.163,0.04,0.212,0.108
						c0.05,0.067,0.065,0.155,0.039,0.235l-2.321,7.391C70.727,172.92,70.625,172.996,70.509,172.996z M68.548,165.606l1.961,6.243
						l1.961-6.243H68.548z"/>
					<path style="fill:#272726;" d="M76.461,172.996c-0.116,0-0.217-0.075-0.252-0.185l-2.322-7.391
						c-0.025-0.08-0.01-0.167,0.04-0.235c0.049-0.068,0.129-0.108,0.212-0.108h4.644c0.084,0,0.163,0.04,0.213,0.108
						c0.05,0.067,0.064,0.155,0.039,0.235l-2.322,7.391C76.679,172.92,76.577,172.996,76.461,172.996z M74.5,165.606l1.961,6.243
						l1.961-6.243H74.5z"/>
				</g>
				<rect x="30.223" y="75.693" style="fill:#BDB1B3;" width="32.909" height="1.541"/>
			</g>
			<path style="opacity:0.5;fill:#D8D8D8;" d="M31.821,79.881c0,0,0.189,15.667-1.599,27.144
				c-1.788,11.477-14.882,55.918-14.882,55.918s14.279-41.245,17.055-55.631c0,0,1.446-16.168,1.534-27.431H31.821z"/>
		</g>
	</g>
	<g>
		<g>
			<g>
				<path style="fill:#ECECEC;" d="M199.876,43.287c-0.843-2.356-3.064-3.705-5.453-4.251c0.154-1.917-0.118-3.864-0.904-5.802
					c-1.633-4.028-5.744-6.94-9.976-7.544c-3.511-0.501-8.298,1.055-10.365,4.064c-0.793,1.154-1.234,2.404-1.354,3.652
					c-1.456-0.141-2.907-0.093-4.405,0.19c-3.735,0.705-7.264,2.925-9.491,6.011c-2.351,3.257-3.27,7.12-2.471,11.071
					c0.056,0.279,0.126,0.558,0.203,0.837c-1.115,0.453-2.149,1.092-2.976,1.897c-1.075,1.046-1.841,2.293-2.298,3.623
					c-3.355-0.345-6.866,1.198-9.313,3.345c-2.693,2.363-4.491,5.773-4.333,9.402c0.004,0.092,0.015,0.192,0.023,0.289
					c-1.589-0.892-3.691-1.123-5.048-0.395c-0.037,0.019-0.07,0.043-0.106,0.063c-0.687-1.403-2.154-2.406-3.498-3.066
					c-4.093-2.006-8.919,0.182-11.793,3.263c-3.337,3.579-3.484,8.356-1.158,12.515c0.007,0.013,0.016,0.025,0.023,0.038
					c-0.529,0.493-1.028,1.02-1.49,1.575c-2.363,2.841-3.11,6.464-1.992,9.973c1.265,3.968,4.341,6.93,8.525,7.442
					c0.084,0.011,0.168,0.013,0.253,0.021c-0.282,1.626,0.201,3.318,1.672,4.527c0.707,0.58,1.535,0.949,2.403,1.131
					c0.515,1.589,1.588,3.034,2.697,4.24c0.587,0.638,1.269,1.126,1.99,1.448c0.244,0.205,0.499,0.399,0.776,0.566
					c1.236,0.749,2.424,0.948,3.847,0.729c1.289-0.199,2.729-0.12,3.857-0.899c1.835-1.267,4.328-3.705,4.151-6.159
					c-0.003-0.043-0.007-0.093-0.012-0.147c1.557-0.333,3.044-0.896,4.399-1.801c1.352-0.904,2.034-2.088,2.197-3.32
					c0.17,0.068,0.338,0.139,0.514,0.202c4.08,1.455,8.685,0.886,12.613-0.741c3.575-1.482,6.66-4.248,8.253-7.792
					c0.441-0.98,0.742-2.135,0.871-3.341c1.87-0.357,3.691-1.16,5.26-2.378c2.329-1.809,3.88-4.863,4.334-7.728
					c0.082-0.513,0.092-1.021,0.054-1.523c1.695-0.438,3.29-1.271,4.825-2.089c1.849-0.986,3.708-2.123,5.182-3.637
					c2.719-2.794,5.076-6.133,5.052-10.177c-0.011-1.922-0.717-3.772-1.871-5.281c0.694-0.478,1.358-1.003,1.993-1.573
					C198.77,52.86,201.433,47.637,199.876,43.287z"/>
				<path style="fill:#ECECEC;" d="M148.973,38.5c-1.111-1.054-3.029-1.465-4.543-1.074c-3.111,0.803-3.49,5.428-0.655,6.72
					C146.958,45.598,152.245,41.606,148.973,38.5z"/>
				<path style="fill:#ECECEC;" d="M139.414,49.51c-0.572-0.543-1.56-0.754-2.34-0.553c-1.603,0.413-1.798,2.796-0.338,3.462
					C138.376,53.168,141.1,51.111,139.414,49.51z"/>
				<path style="fill:#ECECEC;" d="M135.703,29.85c-0.823-0.781-2.243-1.084-3.364-0.795c-2.304,0.594-2.585,4.019-0.486,4.977
					C134.211,35.107,138.126,32.15,135.703,29.85z"/>
			</g>
			<path style="fill:#DE6299;" d="M185.94,42.352c-0.21-0.152-0.326-0.372-0.352-0.618C185.55,41.98,185.643,42.198,185.94,42.352z"
				/>
		</g>
		<g>
			<g>
				<g>
					<g>
						<path style="fill:#979696;" d="M154.19,172.761c0.004-0.036,0.013-0.07,0.013-0.106c0-0.103-0.022-0.206-0.066-0.307
							c-0.342-1.569-2.02-9.135-4.907-20.193c-3.256-12.466-4.216-27.232-4.216-27.232v-13.858h-22.996v13.858
							c0,0-0.96,14.767-4.215,27.232c-2.887,11.058-4.566,18.624-4.908,20.193c-0.044,0.101-0.066,0.204-0.066,0.307
							c0,0.037,0.009,0.071,0.014,0.106H154.19z"/>
						<path style="opacity:0.4;fill:#A6A6A5;" d="M154.137,172.348c-0.342-1.569-2.02-9.135-4.907-20.193
							c-3.256-12.466-4.216-27.232-4.216-27.232v-13.858h-11.309v61.697h20.485c0.004-0.036,0.013-0.07,0.013-0.106
							C154.203,172.552,154.181,172.449,154.137,172.348z"/>
						<path style="fill:#BDB1B3;" d="M149.086,151.591c-0.033-0.128-0.066-0.257-0.099-0.386h-30.943
							c-0.032,0.129-0.066,0.257-0.099,0.386H149.086z"/>
						<rect x="122.018" y="124.463" style="fill:#BDB1B3;" width="22.996" height="0.257"/>
						<path style="fill:#BDB1B3;" d="M153.782,170.748H113.25c-0.169,0.75-0.289,1.292-0.355,1.6
							c-0.044,0.101-0.066,0.204-0.066,0.307c0,0.037,0.009,0.071,0.014,0.106h41.348c0.004-0.036,0.013-0.07,0.013-0.106
							c0-0.103-0.022-0.206-0.066-0.307C154.07,172.04,153.951,171.498,153.782,170.748z"/>
						<rect x="122.018" y="111.064" style="fill:#BDB1B3;" width="22.996" height="1.816"/>
						<rect x="121.621" y="110.46" style="fill:#BDB1B3;" width="23.789" height="1.27"/>
					</g>
				</g>
				<path style="opacity:0.5;fill:#D8D8D8;" d="M125.089,113.671h-1.902c0,0-0.376,14.906-1.566,23.821
					c-1.001,7.489-7.199,32.663-7.199,32.663s8.879-27.693,9.293-32.825C124.284,130.285,125.089,113.671,125.089,113.671z"/>
			</g>
			<rect x="111.313" y="172.536" style="fill:#3E3F3D;" width="44.407" height="0.729"/>
		</g>
	</g>
	<g>
		<g>
			<rect x="254.659" y="98.741" style="fill:#979696;" width="7.335" height="76.04"/>
			<rect x="254.659" y="98.741" style="fill:#979696;" width="7.335" height="1.336"/>
			<g>
				<rect x="254.659" y="109.226" style="fill:#979696;" width="7.335" height="0.239"/>
				<rect x="254.659" y="132.125" style="fill:#979696;" width="7.335" height="0.238"/>
				<rect x="254.659" y="155.022" style="fill:#979696;" width="7.335" height="0.239"/>
			</g>
			<rect x="258.326" y="98.741" style="fill:#979696;" width="3.667" height="76.04"/>
			<rect x="254.09" y="98.016" style="fill:#979696;" width="8.472" height="1.45"/>
		</g>
		<rect x="255.225" y="101.378" style="fill:#D8D8D8;" width="0.295" height="72.742"/>
	</g>
	<g>
		<path style="fill:#D6D6D6;" d="M320.244,80.04c-0.564-0.653-1.274-1.147-2.052-1.516c-0.752-0.357-1.566-0.597-2.37-0.749
			c-3.701-0.703-7.1,0.503-10.286,2.298c-0.873,0.492-1.736,1.001-2.603,1.502c-0.806,0.465-1.537,1.08-2.403,1.435
			c-0.897,0.368-1.934,0.468-2.895,0.522c-2.117,0.118-4.257-0.314-6.301-0.826c-1.137-0.284-2.27-0.591-3.411-0.855
			c-3.917-0.905-9.027-1.53-12.505,1.036c-0.731,0.541-1.558,1.463-1.839,2.349c-0.679,2.143,0.941,3.521,2.052,5.086
			c1.127,1.589,1.203,2.905-0.729,3.894c-2.552,1.306-6.515,2.524-7.033,5.863c-0.147,0.942,0.233,2.357,0.871,3.083
			c1.243,1.411,3.087,2.077,4.851,2.598c0.898,0.266,1.736,0.638,2.613,0.96c1.326,0.484,2.06,2.036,1.839,3.407h1.578
			c0.464-0.522,0.948-1.061,0.895-1.785c-0.138-1.866-2.467-2.689-2.592-4.548c-0.123-1.827,2.127-2.297,3.484-2.471
			c1.257-0.159,3.053-0.295,3.377-1.815c0.407-1.904-2.205-2.158-3.155-3.157c-0.661-0.695-0.186-1.495,0.495-2.013
			c0.647-0.493,1.431-0.765,2.221-0.929c1.994-0.417,4.044,0.357,5.912,0.979c1.979,0.659,3.98,1.302,6.091,1.25
			c1.387-0.034,2.798-0.38,3.883-1.284c1.308-1.09,1.425-2.575,2.132-4.01c1.445-2.932,5.481-2.409,8.127-2.039
			c2.088,0.292,4.216,0.66,6.321,0.31c1.721-0.286,3.208-1.194,4.161-2.666C322.248,83.979,321.732,81.763,320.244,80.04z"/>
		<g>
			<g>
				<g>
					<rect x="273.416" y="108.336" style="fill:#979696;" width="7.103" height="66.446"/>
					<rect x="273.416" y="108.336" style="fill:#979696;" width="7.103" height="1.168"/>
					<g>
						<rect x="273.416" y="117.498" style="fill:#979696;" width="7.103" height="0.208"/>
						<rect x="273.416" y="137.507" style="fill:#979696;" width="7.103" height="0.208"/>
						<rect x="273.416" y="157.515" style="fill:#979696;" width="7.103" height="0.209"/>
					</g>
					<rect x="276.967" y="108.336" style="fill:#979696;" width="3.552" height="66.446"/>
					<rect x="272.865" y="107.703" style="fill:#979696;" width="8.205" height="1.268"/>
				</g>
				<rect x="274.313" y="109.671" style="fill:#D8D8D8;" width="0.333" height="64.449"/>
			</g>
			<rect x="273.416" y="129.635" style="fill:#979696;" width="7.103" height="1.167"/>
			<rect x="272.865" y="129.001" style="fill:#979696;" width="8.205" height="1.268"/>
			<rect x="273.416" y="152.295" style="fill:#979696;" width="7.103" height="1.168"/>
			<rect x="272.865" y="151.662" style="fill:#979696;" width="8.205" height="1.267"/>
		</g>
	</g>
	<g>
		<g>
			<path style="fill:#1D1D1B;" d="M46.702,116.375c-8.5,0-15.392,6.892-15.392,15.392c0,8.5,6.892,15.391,15.392,15.391
				c8.5,0,15.392-6.891,15.392-15.391C62.094,123.267,55.202,116.375,46.702,116.375z M46.702,146.155
				c-7.945,0-14.388-6.441-14.388-14.388c0-7.946,6.442-14.388,14.388-14.388c7.946,0,14.388,6.441,14.388,14.388
				C61.089,139.714,54.648,146.155,46.702,146.155z"/>
		</g>
		<g>
			<path style="fill:#EFAF00;" d="M50.483,131.656c0,2.089-1.692,3.782-3.782,3.782c-2.089,0-3.783-1.693-3.783-3.782
				c0-2.089,1.694-3.783,3.783-3.783C48.791,127.873,50.483,129.566,50.483,131.656z"/>
			<g>
				<path style="fill:#EFAF00;" d="M44.189,127.695l-4.39-7.583c-1.871,1.127-3.492,2.727-4.658,4.75
					c-1.166,2.023-1.737,4.229-1.773,6.413l8.762-0.008C42.211,129.772,43.01,128.469,44.189,127.695z"/>
				<path style="fill:#EFAF00;" d="M51.247,131.26l8.763-0.008c-0.095-4.435-2.4-8.718-6.454-11.154l-4.375,7.593
					C50.362,128.461,51.164,129.764,51.247,131.26z"/>
				<path style="fill:#EFAF00;" d="M44.632,135.59l-4.374,7.592c4.142,2.285,9.003,2.129,12.887-0.013l-4.391-7.585
					c-0.621,0.316-1.321,0.495-2.065,0.495C45.949,136.08,45.25,135.902,44.632,135.59z"/>
			</g>
		</g>
	</g>
</g>
</svg>
